<?xml version="1.0" standalone="no"?>
<!DOCTYPE svg PUBLIC "-//W3C//DTD SVG 20010904//EN"
 "http://www.w3.org/TR/2001/REC-SVG-20010904/DTD/svg10.dtd">
<svg version="1.0" xmlns="http://www.w3.org/2000/svg"
 width="900.000000pt" height="900.000000pt" viewBox="0 0 900.000000 900.000000"
 preserveAspectRatio="xMidYMid meet">
<metadata>
Created by potrace 1.10, written by Peter Selinger 2001-2011
</metadata>
<g transform="translate(0.000000,900.000000) scale(0.100000,-0.100000)"
fill="#FFFFFF" stroke="black">
<path d="M2722 6895 c-85 -32 -138 -65 -197 -123 -112 -110 -165 -199 -211
-357 -25 -85 -25 -354 0 -440 48 -161 157 -349 252 -436 38 -33 145 -114 164
-122 8 -4 22 -11 30 -16 14 -8 40 -20 122 -55 20 -9 44 -16 53 -16 23 0 98
-21 109 -31 4 -4 -4 -33 -19 -65 -15 -32 -31 -70 -36 -84 -67 -207 -68 -207
-165 -233 -77 -20 -104 -42 -104 -87 0 -54 25 -73 92 -68 60 3 63 -2 35 -76
-17 -46 -37 -63 -84 -72 -38 -7 -73 -46 -73 -80 0 -24 45 -74 67 -74 20 0 24
-17 9 -47 -14 -29 -31 -76 -46 -128 -24 -82 -40 -133 -49 -160 -5 -16 -17 -57
-25 -90 -8 -33 -21 -87 -29 -120 -18 -71 -41 -183 -58 -280 -7 -38 -14 -164
-16 -280 -5 -216 7 -339 43 -440 8 -23 14 -48 14 -57 0 -10 6 -32 14 -50 8
-18 22 -53 31 -78 30 -75 83 -184 110 -224 14 -20 25 -39 25 -43 0 -6 54 -76
87 -113 73 -81 93 -106 93 -117 0 -10 -56 -13 -249 -13 -148 0 -260 -4 -278
-11 -38 -13 -69 -66 -59 -102 3 -14 17 -39 30 -54 l24 -28 2027 0 2027 0 24
28 c33 38 33 96 0 134 l-24 28 -273 2 c-149 2 -274 5 -276 7 -2 2 22 35 54 72
66 78 153 190 153 198 0 3 12 22 26 43 43 64 83 155 131 298 44 132 72 322 73
495 0 150 -29 375 -66 506 -8 28 -14 59 -14 69 0 10 -7 43 -16 74 -8 31 -22
81 -31 111 -8 30 -21 73 -28 95 -6 22 -20 67 -30 100 -9 33 -22 71 -27 85 -29
72 -29 79 7 103 38 24 50 54 36 89 -12 31 -29 44 -67 52 -39 9 -62 32 -80 83
-21 61 -20 63 45 63 51 0 61 3 75 25 39 59 -2 110 -110 139 -66 18 -73 23 -88
56 -9 20 -16 42 -16 48 0 6 -6 26 -14 44 -8 18 -22 53 -31 78 -9 25 -26 64
-36 86 -11 23 -17 48 -14 56 6 15 67 38 101 38 11 0 32 7 48 15 15 8 34 15 41
15 16 0 115 53 180 96 67 44 179 156 224 224 37 56 88 157 110 220 47 133 65
342 36 436 -8 27 -15 60 -15 74 0 14 -7 38 -15 54 -8 15 -15 32 -15 36 0 4 -9
27 -21 51 -65 138 -161 244 -275 305 -152 81 -300 84 -464 10 -155 -71 -305
-230 -405 -431 -26 -52 -51 -95 -56 -95 -5 0 -23 13 -41 28 -88 75 -264 164
-403 206 -120 36 -164 46 -196 46 -19 0 -54 5 -79 11 -104 24 -342 11 -495
-27 -160 -40 -183 -48 -305 -108 -95 -46 -102 -51 -178 -109 -35 -27 -70 -46
-77 -43 -7 2 -35 48 -62 102 -67 134 -66 133 -120 195 -204 232 -457 330 -661
254z m197 -235 c40 -20 87 -74 110 -125 27 -61 42 -144 51 -285 20 -309 63
-462 161 -574 32 -37 47 -46 73 -46 37 0 66 38 66 87 0 16 4 33 8 38 4 6 19
37 32 70 13 33 40 87 59 120 42 72 194 227 274 279 63 41 229 126 246 126 6 0
25 6 43 14 108 46 353 80 478 66 233 -26 319 -47 480 -120 139 -62 332 -224
408 -340 60 -92 132 -249 132 -287 0 -26 31 -53 61 -53 53 0 147 138 186 275
8 28 23 151 34 275 25 282 45 357 115 434 100 109 235 83 349 -69 78 -103 99
-180 98 -360 0 -151 -11 -199 -69 -315 -110 -217 -342 -360 -587 -360 -87 0
-118 -9 -152 -46 -38 -41 -33 -80 15 -124 22 -20 40 -42 40 -48 0 -6 7 -28 16
-49 64 -147 77 -182 71 -197 -4 -10 -26 -15 -79 -18 -40 -2 -95 -10 -123 -17
-171 -44 -185 -52 -185 -104 0 -54 12 -62 82 -60 35 1 92 9 128 17 36 9 102
16 148 16 93 0 80 11 123 -105 25 -66 24 -68 -13 -61 -18 3 -69 11 -113 16
-44 5 -111 14 -150 19 -38 6 -128 10 -198 11 l-129 0 -29 -29 c-35 -36 -36
-51 -5 -88 l24 -28 169 -6 c159 -5 268 -17 358 -40 22 -6 54 -13 70 -15 68
-11 72 -14 90 -56 25 -62 62 -167 75 -213 5 -16 13 -43 18 -60 15 -45 38 -122
57 -195 9 -36 23 -87 30 -115 24 -91 38 -149 45 -200 4 -27 13 -70 20 -95 21
-74 19 -476 -3 -570 -50 -215 -112 -364 -202 -485 -50 -67 -118 -145 -128
-145 -5 0 -32 20 -60 45 -29 25 -81 60 -117 77 -62 30 -71 31 -181 31 -110 -1
-119 -3 -183 -34 -46 -23 -85 -52 -126 -95 -32 -35 -61 -60 -64 -57 -10 11 -7
40 8 70 8 15 23 46 33 68 10 22 32 60 48 85 56 86 30 169 -53 170 -27 0 -43
-11 -95 -63 -58 -58 -127 -173 -127 -211 0 -7 -7 -30 -15 -49 -9 -23 -15 -68
-15 -120 0 -51 -5 -90 -12 -100 -12 -16 -45 -17 -398 -15 l-385 3 -11 115 c-6
63 -16 125 -22 137 -7 12 -12 28 -12 36 0 44 -92 195 -149 244 -35 30 -97 31
-128 1 -35 -33 -30 -75 20 -160 23 -40 49 -89 58 -108 19 -40 42 -120 37 -126
-4 -3 -25 15 -97 90 -58 60 -154 106 -244 117 -71 9 -167 0 -203 -19 -11 -5
-36 -18 -57 -28 -21 -11 -63 -41 -93 -68 l-56 -49 -22 24 c-24 27 -104 134
-123 164 -15 25 -81 159 -99 200 -51 123 -73 214 -94 407 -12 108 10 407 40
533 49 207 90 367 111 430 16 46 39 126 49 165 16 68 59 180 76 199 7 7 29 17
51 21 21 4 58 12 83 18 106 25 265 42 391 42 116 0 140 3 158 18 33 26 31 79
-3 109 -25 21 -36 23 -149 23 -67 0 -162 -7 -212 -15 -49 -8 -112 -15 -140
-15 -27 -1 -67 -7 -88 -14 -33 -12 -39 -12 -44 1 -3 8 2 30 11 49 9 19 16 41
16 48 0 7 9 25 21 40 19 24 26 26 103 26 46 0 104 -6 130 -14 26 -8 76 -18
111 -21 56 -6 65 -5 84 14 40 40 19 93 -51 124 -20 10 -47 17 -61 17 -14 0
-38 5 -54 11 -15 6 -66 14 -113 18 -83 6 -85 7 -82 31 1 14 8 39 16 55 8 17
21 48 29 70 37 101 53 132 79 161 25 26 29 38 26 74 -5 67 -34 83 -166 91
-132 7 -219 28 -292 70 -8 4 -35 19 -59 31 -70 36 -191 163 -228 238 -56 116
-80 198 -89 305 -8 87 40 303 74 337 7 7 12 18 12 25 0 19 100 116 145 140 52
28 124 29 174 3z m589 -4291 c53 -13 125 -67 147 -109 8 -16 15 -31 15 -35 0
-3 -99 -5 -220 -5 -213 0 -220 1 -220 20 0 44 85 111 161 128 60 14 64 14 117
1z m2039 -14 c44 -18 113 -88 113 -114 0 -20 -8 -20 -216 -23 -148 -2 -219 0
-225 8 -13 15 42 89 83 111 79 43 169 50 245 18z"/>
<path d="M3803 5310 c-63 -30 -113 -105 -113 -170 0 -70 53 -148 119 -176 130
-55 279 77 242 214 -16 60 -55 109 -107 132 -54 25 -87 25 -141 0z"/>
<path d="M4973 5312 c-55 -23 -80 -47 -103 -100 -25 -56 -25 -92 -1 -145 32
-69 100 -116 168 -117 41 0 109 38 143 79 29 37 33 49 33 107 1 56 -3 70 -29
107 -50 71 -138 100 -211 69z"/>
<path d="M4339 4884 c-94 -17 -81 -182 17 -214 47 -16 49 -35 10 -93 -66 -98
-73 -100 -497 -106 -383 -6 -379 -6 -402 -61 -6 -14 -13 -108 -16 -210 l-6
-185 -46 -5 c-61 -7 -79 -23 -79 -70 0 -29 9 -47 40 -83 23 -25 50 -49 62 -53
39 -12 134 -73 166 -105 44 -46 44 -93 0 -136 -36 -34 -110 -63 -161 -63 -33
0 -153 34 -171 49 -20 15 -83 22 -110 11 -17 -6 -33 -24 -42 -47 -29 -68 5
-102 171 -174 17 -7 59 -15 94 -18 69 -6 69 -6 93 -81 10 -30 26 -52 48 -67
33 -23 33 -23 494 -24 1067 -1 1355 2 1389 16 38 16 54 40 63 95 8 48 25 60
91 60 57 1 164 44 223 90 34 27 40 37 40 68 0 21 -9 48 -20 62 -16 21 -27 25
-67 24 -27 0 -62 -7 -78 -16 -108 -58 -267 -48 -328 19 -24 27 -31 82 -15 113
16 29 72 70 147 106 74 36 141 104 141 144 0 17 -7 42 -16 55 -14 21 -24 25
-64 25 l-48 0 -4 200 -3 200 -28 27 -27 28 -353 6 c-193 3 -365 10 -382 14
-50 13 -108 67 -127 120 -19 51 -17 65 11 65 10 0 34 17 54 37 31 30 37 43 37
77 -1 28 -8 50 -24 70 -23 28 -26 29 -137 31 -63 2 -126 1 -140 -1z m785 -612
c3 -5 -20 -27 -50 -48 -31 -21 -61 -43 -67 -49 -7 -5 -35 -25 -62 -44 -56 -39
-151 -104 -240 -166 -33 -22 -97 -67 -142 -98 -46 -31 -90 -57 -98 -57 -9 0
-42 17 -73 38 -95 64 -195 133 -232 161 -19 14 -43 31 -52 36 -9 6 -52 34 -95
64 -43 30 -111 77 -150 104 -40 27 -70 53 -67 58 7 12 1321 12 1328 1z m-1385
-206 c36 -25 104 -72 151 -105 47 -33 104 -73 127 -88 23 -15 42 -35 43 -44 0
-8 -25 -33 -56 -55 -31 -21 -85 -60 -121 -87 -35 -26 -69 -45 -74 -42 -5 4 -9
18 -9 33 0 15 -7 40 -15 56 -8 15 -15 35 -15 42 0 8 -27 41 -60 73 l-60 59 0
94 c0 86 4 108 18 108 3 0 35 -20 71 -44z m1529 -64 l3 -101 -31 -16 c-35 -18
-120 -128 -120 -155 0 -10 -8 -28 -18 -40 -21 -26 -43 -22 -82 12 -14 13 -43
35 -65 50 -49 34 -95 76 -95 88 0 4 17 19 38 31 20 13 62 41 92 64 30 23 62
45 70 48 8 4 53 34 100 67 47 33 90 58 95 57 6 -2 11 -49 13 -105z m-989 -320
c70 -55 141 -92 174 -92 17 1 50 12 72 25 22 14 47 28 55 32 8 3 31 19 51 35
41 32 61 35 79 13 7 -8 16 -15 20 -15 8 0 81 -49 240 -161 47 -34 113 -79 148
-102 34 -23 62 -47 62 -54 0 -10 -145 -13 -714 -13 -393 0 -717 4 -720 8 -6
10 11 23 166 128 62 43 160 110 218 150 58 40 107 73 109 73 2 1 20 -12 40
-27z"/>
</g>
</svg>
